<svg width="180" height="60" viewBox="0 0 180 60" fill="none" xmlns="http://www.w3.org/2000/svg">
<path d="M179.531 42.4068H169.288V11.1883H148.27V0.928711H179.531V42.4068Z" fill="#1346A1"/>
<path d="M138.692 52.6253H127.937V21.6416H138.692V52.6253Z" fill="#1346A1"/>
<path d="M169.375 52.6192H148.28V42.3594H169.375V52.6192Z" fill="#1346A1"/>
<path d="M138.635 11.1759H127.893V0.916016H138.635V11.1759Z" fill="#1346A1"/>
<path d="M158.536 26.694C158.536 23.8659 156.247 21.5732 153.424 21.5732C150.601 21.5732 148.312 23.8659 148.312 26.694V26.7125C148.312 29.5406 150.601 31.8332 153.424 31.8332C156.247 31.8332 158.536 29.5406 158.536 26.7125V26.694Z" fill="#D9562A"/>
<path d="M18.3965 16.194V1.04369H20.5633V16.194H18.3965Z" fill="#1346A1"/>
<path d="M22.5835 16.194V1.04369H24.6653L27.9367 10.1722H27.9792V1.04369H30.146V16.194H28.1067L24.7928 7.0868H24.7503V16.194H22.5835Z" fill="#1346A1"/>
<path d="M32.1075 16.194V1.04369H35.3152C36.5614 1.04369 37.5032 1.38414 38.1405 2.06506C38.7919 2.74597 39.1177 3.7106 39.1177 4.95894V12.0447C39.1177 13.4633 38.7707 14.513 38.0768 15.1939C37.397 15.8607 36.4127 16.194 35.124 16.194H32.1075ZM34.2743 3.08643V14.1513H35.2727C35.8817 14.1513 36.3136 14.0023 36.5685 13.7044C36.8234 13.3924 36.9509 12.91 36.9509 12.2575V4.95894C36.9509 4.36314 36.8305 3.90211 36.5898 3.57584C36.349 3.24957 35.91 3.08643 35.2727 3.08643H34.2743Z" fill="#1346A1"/>
<path d="M41.2161 16.194V1.04369H43.3829V16.194H41.2161Z" fill="#1346A1"/>
<path d="M49.8641 10.8957L48.802 5.40579H48.7595L47.6973 10.8957H49.8641ZM44.5109 16.194L47.8885 1.04369H49.6942L53.0718 16.194H50.905L50.2677 12.9384H47.315L46.6777 16.194H44.5109Z" fill="#1346A1"/>
<path d="M54.1388 16.194V1.04369H57.3465C58.5927 1.04369 59.5345 1.38414 60.1718 2.06506C60.8232 2.74597 61.1489 3.7106 61.1489 4.95894V12.0447C61.1489 13.4633 60.802 14.513 60.108 15.1939C59.4283 15.8607 58.444 16.194 57.1553 16.194H54.1388ZM56.3055 3.08643V14.1513H57.304C57.9129 14.1513 58.3449 14.0023 58.5998 13.7044C58.8547 13.3924 58.9822 12.91 58.9822 12.2575V4.95894C58.9822 4.36314 58.8618 3.90211 58.621 3.57584C58.3803 3.24957 57.9413 3.08643 57.304 3.08643H56.3055Z" fill="#1346A1"/>
<path d="M63.0562 4.61849C63.0562 4.0085 63.1624 3.46945 63.3748 3.00132C63.5872 2.53319 63.8705 2.14308 64.2245 1.83099C64.5644 1.53309 64.9468 1.30612 65.3717 1.15008C65.8107 0.994037 66.2497 0.916016 66.6887 0.916016C67.1277 0.916016 67.5597 0.994037 67.9845 1.15008C68.4236 1.30612 68.8201 1.53309 69.1741 1.83099C69.514 2.14308 69.7902 2.53319 70.0026 3.00132C70.215 3.46945 70.3213 4.0085 70.3213 4.61849V12.6192C70.3213 13.2576 70.215 13.8037 70.0026 14.2577C69.7902 14.7116 69.514 15.0875 69.1741 15.3854C68.8201 15.6975 68.4236 15.9316 67.9845 16.0876C67.5597 16.2437 67.1277 16.3217 66.6887 16.3217C66.2497 16.3217 65.8107 16.2437 65.3717 16.0876C64.9468 15.9316 64.5644 15.6975 64.2245 15.3854C63.8705 15.0875 63.5872 14.7116 63.3748 14.2577C63.1624 13.8037 63.0562 13.2576 63.0562 12.6192V4.61849ZM65.223 12.6192C65.223 13.1441 65.3646 13.5342 65.6478 13.7896C65.9452 14.0307 66.2922 14.1513 66.6887 14.1513C67.0853 14.1513 67.4251 14.0307 67.7084 13.7896C68.0058 13.5342 68.1545 13.1441 68.1545 12.6192V4.61849C68.1545 4.09362 68.0058 3.7106 67.7084 3.46944C67.4251 3.2141 67.0853 3.08643 66.6887 3.08643C66.2922 3.08643 65.9452 3.2141 65.6478 3.46944C65.3646 3.7106 65.223 4.09362 65.223 4.61849V12.6192Z" fill="#1346A1"/>
<path d="M73.4028 16.194V3.08643H70.8961V1.04369H78.0763V3.08643H75.5696V16.194H73.4028Z" fill="#1346A1"/>
<path d="M85.9156 11.8745V12.8107C85.9156 13.2789 85.8235 13.7257 85.6394 14.1513C85.4695 14.5627 85.2287 14.9315 84.9172 15.2578C84.6056 15.584 84.2374 15.8465 83.8125 16.0451C83.4018 16.2295 82.9557 16.3217 82.4742 16.3217C82.0635 16.3217 81.6458 16.265 81.2209 16.1515C80.796 16.038 80.4137 15.8394 80.0738 15.5557C79.7339 15.272 79.4506 14.9102 79.2241 14.4705C79.0116 14.0165 78.9054 13.442 78.9054 12.7469V4.4057C78.9054 3.9092 78.9904 3.44817 79.1603 3.02259C79.3303 2.59702 79.571 2.22819 79.8826 1.91611C80.1941 1.60402 80.5624 1.36287 80.9872 1.19264C81.4262 1.00822 81.9077 0.916016 82.4317 0.916016C83.4514 0.916016 84.2799 1.24938 84.9172 1.91611C85.2287 2.24238 85.4695 2.63249 85.6394 3.08643C85.8235 3.52619 85.9156 4.0085 85.9156 4.53337V5.38452H83.7488V4.66104C83.7488 4.23547 83.6284 3.86664 83.3877 3.55456C83.1469 3.24247 82.8212 3.08643 82.4105 3.08643C81.8723 3.08643 81.5112 3.25666 81.3271 3.59712C81.1572 3.92339 81.0722 4.34187 81.0722 4.85255V12.598C81.0722 13.0377 81.1642 13.4065 81.3483 13.7044C81.5466 14.0023 81.8936 14.1513 82.3893 14.1513C82.5309 14.1513 82.6796 14.13 82.8354 14.0875C83.0053 14.0307 83.1611 13.9456 83.3027 13.8321C83.4302 13.7186 83.5364 13.5626 83.6213 13.364C83.7063 13.1654 83.7488 12.9171 83.7488 12.6192V11.8745H85.9156Z" fill="#1346A1"/>
<path d="M87.5561 4.61849C87.5561 4.0085 87.6623 3.46945 87.8748 3.00132C88.0872 2.53319 88.3704 2.14308 88.7245 1.83099C89.0644 1.53309 89.4467 1.30612 89.8716 1.15008C90.3106 0.994037 90.7496 0.916016 91.1887 0.916016C91.6277 0.916016 92.0596 0.994037 92.4845 1.15008C92.9235 1.30612 93.32 1.53309 93.6741 1.83099C94.014 2.14308 94.2901 2.53319 94.5026 3.00132C94.715 3.46945 94.8212 4.0085 94.8212 4.61849V12.6192C94.8212 13.2576 94.715 13.8037 94.5026 14.2577C94.2901 14.7116 94.014 15.0875 93.6741 15.3854C93.32 15.6975 92.9235 15.9316 92.4845 16.0876C92.0596 16.2437 91.6277 16.3217 91.1887 16.3217C90.7496 16.3217 90.3106 16.2437 89.8716 16.0876C89.4467 15.9316 89.0644 15.6975 88.7245 15.3854C88.3704 15.0875 88.0872 14.7116 87.8748 14.2577C87.6623 13.8037 87.5561 13.2576 87.5561 12.6192V4.61849ZM89.7229 12.6192C89.7229 13.1441 89.8645 13.5342 90.1477 13.7896C90.4451 14.0307 90.7921 14.1513 91.1887 14.1513C91.5852 14.1513 91.9251 14.0307 92.2083 13.7896C92.5057 13.5342 92.6544 13.1441 92.6544 12.6192V4.61849C92.6544 4.09362 92.5057 3.7106 92.2083 3.46944C91.9251 3.2141 91.5852 3.08643 91.1887 3.08643C90.7921 3.08643 90.4451 3.2141 90.1477 3.46944C89.8645 3.7106 89.7229 4.09362 89.7229 4.61849V12.6192Z" fill="#1346A1"/>
<path d="M96.7284 16.194V1.04369H98.8102L101.593 9.06571H101.636L104.397 1.04369H106.5V16.194H104.333V6.98041H104.291L102.145 13.4917H101.062L98.9377 6.98041H98.8952V16.194H96.7284Z" fill="#1346A1"/>
<path d="M59.375 34.3659V19.2156H62.5827C63.8289 19.2156 64.7707 19.556 65.408 20.2369C66.0595 20.9178 66.3852 21.8825 66.3852 23.1308V30.2166C66.3852 31.6352 66.0382 32.6849 65.3443 33.3658C64.6645 34.0325 63.6802 34.3659 62.3915 34.3659H59.375ZM61.5418 21.2583V32.3232H62.5402C63.1492 32.3232 63.5811 32.1742 63.836 31.8763C64.0909 31.5642 64.2184 31.0819 64.2184 30.4294V23.1308C64.2184 22.535 64.098 22.074 63.8573 21.7477C63.6165 21.4214 63.1775 21.2583 62.5402 21.2583H61.5418Z" fill="#1346A1"/>
<path d="M68.4836 34.3659V19.2156H70.6504V34.3659H68.4836Z" fill="#1346A1"/>
<path d="M72.6281 22.7904C72.6281 22.1804 72.7343 21.6413 72.9468 21.1732C73.1592 20.7051 73.4424 20.315 73.7965 20.0029C74.1364 19.705 74.5187 19.478 74.9436 19.322C75.3826 19.1659 75.8216 19.0879 76.2607 19.0879C76.6997 19.0879 77.1316 19.1659 77.5565 19.322C77.9955 19.478 78.392 19.705 78.7461 20.0029C79.086 20.315 79.3621 20.7051 79.5746 21.1732C79.787 21.6413 79.8932 22.1804 79.8932 22.7904V23.5564H77.7264V22.7904C77.7264 22.2655 77.5777 21.8825 77.2803 21.6413C76.9971 21.386 76.6572 21.2583 76.2607 21.2583C75.8641 21.2583 75.5172 21.386 75.2198 21.6413C74.9365 21.8825 74.7949 22.2655 74.7949 22.7904V30.7911C74.7949 31.316 74.9365 31.7061 75.2198 31.9614C75.5172 32.2026 75.8641 32.3232 76.2607 32.3232C76.6572 32.3232 76.9971 32.2026 77.2803 31.9614C77.5777 31.7061 77.7264 31.316 77.7264 30.7911V27.9398H76.0058V26.0247H79.8932V30.7911C79.8932 31.4295 79.787 31.9756 79.5746 32.4296C79.3621 32.8835 79.086 33.2594 78.7461 33.5573C78.392 33.8694 77.9955 34.1035 77.5565 34.2595C77.1316 34.4156 76.6997 34.4936 76.2607 34.4936C75.8216 34.4936 75.3826 34.4156 74.9436 34.2595C74.5187 34.1035 74.1364 33.8694 73.7965 33.5573C73.4424 33.2594 73.1592 32.8835 72.9468 32.4296C72.7343 31.9756 72.6281 31.4295 72.6281 30.7911V22.7904Z" fill="#1346A1"/>
<path d="M81.8642 34.3659V19.2156H84.0309V34.3659H81.8642Z" fill="#1346A1"/>
<path d="M87.5594 34.3659V21.2583H85.0528V19.2156H92.2329V21.2583H89.7262V34.3659H87.5594Z" fill="#1346A1"/>
<path d="M96.4038 29.0675L95.3417 23.5777H95.2992L94.237 29.0675H96.4038ZM91.0506 34.3659L94.4282 19.2156H96.2339L99.6115 34.3659H97.4447L96.8074 31.1103H93.8547L93.2174 34.3659H91.0506Z" fill="#1346A1"/>
<path d="M100.678 34.3659V19.2156H102.845V32.1955H107.136V34.3659H100.678Z" fill="#1346A1"/>
<path d="M0 52.538V37.3877H3.25017C3.84498 37.3877 4.36897 37.4657 4.82215 37.6218C5.27534 37.7778 5.68603 38.0544 6.05425 38.4516C6.42246 38.8488 6.67737 39.317 6.81899 39.856C6.96061 40.3809 7.03142 41.0973 7.03142 42.0051C7.03142 42.6861 6.98894 43.2606 6.90396 43.7287C6.83315 44.1968 6.67029 44.6366 6.41538 45.048C6.11797 45.5445 5.72144 45.9346 5.22577 46.2183C4.7301 46.4878 4.07865 46.6226 3.27142 46.6226H2.16678V52.538H0ZM2.16678 39.4304V44.5799H3.20769C3.64671 44.5799 3.9866 44.516 4.22735 44.3883C4.4681 44.2607 4.64513 44.0834 4.75842 43.8564C4.87172 43.6436 4.93545 43.3812 4.94961 43.0691C4.97793 42.757 4.9921 42.4094 4.9921 42.0264C4.9921 41.6718 4.98502 41.3384 4.97085 41.0263C4.95669 40.7001 4.89296 40.4163 4.77967 40.1752C4.66637 39.934 4.49643 39.7496 4.26984 39.6219C4.04324 39.4943 3.71752 39.4304 3.29266 39.4304H2.16678Z" fill="#1346A1"/>
<path d="M10.8175 39.4304V44.1543H12.0496C12.4319 44.1543 12.7364 44.1046 12.963 44.0053C13.1896 43.8918 13.3666 43.7358 13.4941 43.5372C13.6074 43.3386 13.6853 43.0974 13.7278 42.8137C13.7703 42.5158 13.7915 42.1754 13.7915 41.7924C13.7915 41.4093 13.7703 41.076 13.7278 40.7923C13.6853 40.4944 13.6003 40.239 13.4729 40.0262C13.2038 39.629 12.6939 39.4304 11.9434 39.4304H10.8175ZM8.6507 52.538V37.3877H12.1345C14.6837 37.3877 15.9583 38.8701 15.9583 41.8349C15.9583 42.7286 15.8167 43.4876 15.5334 44.1117C15.2643 44.7359 14.7828 45.2395 14.0889 45.6225L16.4256 52.538H14.1314L12.1133 46.0694H10.8175V52.538H8.6507Z" fill="#1346A1"/>
<path d="M17.7593 52.538V37.3877H19.9261V52.538H17.7593Z" fill="#1346A1"/>
<path d="M29.3813 37.3877L26.2799 52.538H24.368L21.2878 37.3877H23.582L25.3027 47.9631H25.3452L27.0871 37.3877H29.3813Z" fill="#1346A1"/>
<path d="M34.2697 47.2397L33.2076 41.7498H33.1651L32.1029 47.2397H34.2697ZM28.9165 52.538L32.2941 37.3877H34.0998L37.4774 52.538H35.3106L34.6733 49.2824H31.7206L31.0833 52.538H28.9165Z" fill="#1346A1"/>
<path d="M38.8059 52.538V39.4304H36.2992V37.3877H43.4794V39.4304H40.9727V52.538H38.8059Z" fill="#1346A1"/>
<path d="M44.436 52.538V37.3877H50.8938V39.4304H46.6027V43.8777H50.3415V45.9204H46.6027V50.3676H50.8938V52.538H44.436Z" fill="#1346A1"/>
<path d="M56.2399 52.538V37.3877H58.4067V50.3676H62.6978V52.538H56.2399Z" fill="#1346A1"/>
<path d="M64.166 52.538V37.3877H66.3328V52.538H64.166Z" fill="#1346A1"/>
<path d="M68.438 52.538V37.3877H70.5198L73.3027 45.4097H73.3452L76.1067 37.3877H78.2098V52.538H76.043V43.3244H76.0005L73.855 49.8357H72.7716L70.6473 43.3244H70.6048V52.538H68.438Z" fill="#1346A1"/>
<path d="M80.3057 52.538V37.3877H82.4725V52.538H80.3057Z" fill="#1346A1"/>
<path d="M86.001 52.538V39.4304H83.4943V37.3877H90.6744V39.4304H88.1678V52.538H86.001Z" fill="#1346A1"/>
<path d="M91.631 52.538V37.3877H98.0889V39.4304H93.7978V43.8777H97.5366V45.9204H93.7978V50.3676H98.0889V52.538H91.631Z" fill="#1346A1"/>
<path d="M99.4934 52.538V37.3877H102.701C103.947 37.3877 104.889 37.7282 105.526 38.4091C106.178 39.09 106.504 40.0546 106.504 41.303V48.3887C106.504 49.8073 106.157 50.857 105.463 51.5379C104.783 52.2047 103.799 52.538 102.51 52.538H99.4934ZM101.66 39.4304V50.4953H102.659C103.268 50.4953 103.7 50.3463 103.954 50.0484C104.209 49.7364 104.337 49.254 104.337 48.6015V41.303C104.337 40.7072 104.216 40.2461 103.976 39.9198C103.735 39.5936 103.296 39.4304 102.659 39.4304H101.66Z" fill="#1346A1"/>
<path fill-rule="evenodd" clip-rule="evenodd" d="M116.599 52.6727L116.599 0.916016L117.82 0.916016L117.82 52.6727L116.599 52.6727Z" fill="#1346A1"/>
<path d="M129.075 54.7598V58.6058H128.244V54.7598H129.075Z" fill="#D9562A"/>
<path d="M130.562 56.9382V58.6058H129.744V55.7213H130.523V56.2302H130.558C130.623 56.0624 130.732 55.9297 130.886 55.8321C131.04 55.7332 131.226 55.6837 131.445 55.6837C131.649 55.6837 131.828 55.7275 131.98 55.8152C132.132 55.9028 132.251 56.028 132.335 56.1908C132.42 56.3523 132.462 56.5451 132.462 56.7692V58.6058H131.644V56.9119C131.645 56.7354 131.599 56.5977 131.506 56.4988C131.413 56.3986 131.284 56.3485 131.12 56.3485C131.01 56.3485 130.913 56.3717 130.828 56.418C130.745 56.4643 130.68 56.5319 130.633 56.6208C130.587 56.7085 130.563 56.8143 130.562 56.9382Z" fill="#D9562A"/>
<path d="M134.692 55.7213V56.3222H132.872V55.7213H134.692ZM133.289 58.6058V55.5128C133.289 55.3037 133.33 55.1303 133.414 54.9926C133.498 54.8549 133.613 54.7516 133.759 54.6828C133.905 54.6139 134.071 54.5795 134.256 54.5795C134.382 54.5795 134.496 54.5889 134.6 54.6076C134.705 54.6264 134.783 54.6433 134.834 54.6584L134.688 55.2593C134.656 55.2493 134.617 55.2399 134.569 55.2311C134.523 55.2224 134.476 55.218 134.427 55.218C134.307 55.218 134.223 55.2455 134.176 55.3006C134.128 55.3545 134.105 55.4302 134.105 55.5279V58.6058H133.289Z" fill="#D9562A"/>
<path d="M135.192 58.6058V55.7213H136.009V58.6058H135.192ZM135.602 55.3494C135.481 55.3494 135.377 55.31 135.29 55.2311C135.204 55.151 135.161 55.0552 135.161 54.9438C135.161 54.8336 135.204 54.7391 135.29 54.6602C135.377 54.5801 135.481 54.54 135.602 54.54C135.724 54.54 135.828 54.5801 135.913 54.6602C136 54.7391 136.044 54.8336 136.044 54.9438C136.044 55.0552 136 55.151 135.913 55.2311C135.828 55.31 135.724 55.3494 135.602 55.3494Z" fill="#D9562A"/>
<path d="M137.482 56.9382V58.6058H136.664V55.7213H137.444V56.2302H137.478C137.544 56.0624 137.653 55.9297 137.807 55.8321C137.96 55.7332 138.146 55.6837 138.365 55.6837C138.57 55.6837 138.748 55.7275 138.901 55.8152C139.053 55.9028 139.171 56.028 139.256 56.1908C139.34 56.3523 139.383 56.5451 139.383 56.7692V58.6058H138.565V56.9119C138.566 56.7354 138.52 56.5977 138.427 56.4988C138.333 56.3986 138.205 56.3485 138.041 56.3485C137.931 56.3485 137.833 56.3717 137.749 56.418C137.666 56.4643 137.601 56.5319 137.553 56.6208C137.507 56.7085 137.483 56.8143 137.482 56.9382Z" fill="#D9562A"/>
<path d="M140.027 58.6058V55.7213H140.845V58.6058H140.027ZM140.438 55.3494C140.316 55.3494 140.212 55.31 140.125 55.2311C140.039 55.151 139.996 55.0552 139.996 54.9438C139.996 54.8336 140.039 54.7391 140.125 54.6602C140.212 54.5801 140.316 54.54 140.438 54.54C140.559 54.54 140.663 54.5801 140.749 54.6602C140.836 54.7391 140.879 54.8336 140.879 54.9438C140.879 55.0552 140.836 55.151 140.749 55.2311C140.663 55.31 140.559 55.3494 140.438 55.3494Z" fill="#D9562A"/>
<path d="M143.068 55.7213V56.3222H141.293V55.7213H143.068ZM141.696 55.0302H142.513V57.7194C142.513 57.7933 142.525 57.8509 142.548 57.8922C142.571 57.9323 142.603 57.9604 142.644 57.9767C142.686 57.993 142.735 58.0011 142.79 58.0011C142.828 58.0011 142.867 57.998 142.905 57.9917C142.943 57.9842 142.973 57.9786 142.993 57.9748L143.122 58.5702C143.081 58.5827 143.023 58.5971 142.949 58.6134C142.875 58.6309 142.785 58.6415 142.679 58.6453C142.481 58.6528 142.309 58.6271 142.16 58.5683C142.013 58.5094 141.899 58.418 141.817 58.2941C141.735 58.1702 141.694 58.0137 141.696 57.8246V55.0302Z" fill="#D9562A"/>
<path d="M144.913 58.6622C144.61 58.6622 144.349 58.6021 144.13 58.4819C143.912 58.3605 143.745 58.1889 143.627 57.9673C143.509 57.7445 143.45 57.4809 143.45 57.1767C143.45 56.88 143.509 56.6196 143.627 56.3955C143.745 56.1714 143.91 55.9967 144.124 55.8715C144.339 55.7463 144.591 55.6837 144.88 55.6837C145.075 55.6837 145.256 55.7144 145.424 55.7757C145.592 55.8358 145.74 55.9266 145.865 56.048C145.992 56.1695 146.09 56.3222 146.161 56.5063C146.231 56.6891 146.266 56.9031 146.266 57.1485V57.3683H143.777V56.8725H145.496C145.496 56.7573 145.471 56.6553 145.42 56.5664C145.368 56.4775 145.297 56.408 145.207 56.3579C145.117 56.3066 145.013 56.2809 144.894 56.2809C144.77 56.2809 144.66 56.3091 144.564 56.3654C144.469 56.4205 144.395 56.495 144.341 56.5889C144.287 56.6815 144.26 56.7848 144.258 56.8988V57.3701C144.258 57.5129 144.285 57.6362 144.339 57.7401C144.394 57.844 144.471 57.9241 144.571 57.9805C144.671 58.0368 144.789 58.065 144.926 58.065C145.017 58.065 145.1 58.0525 145.176 58.0274C145.251 58.0024 145.316 57.9648 145.37 57.9147C145.424 57.8647 145.464 57.8033 145.493 57.7307L146.249 57.7795C146.211 57.9573 146.132 58.1126 146.013 58.2453C145.895 58.3767 145.743 58.4794 145.556 58.5533C145.37 58.6259 145.156 58.6622 144.913 58.6622Z" fill="#D9562A"/>
<path d="M148.066 58.6058V54.7598H149.617C149.916 54.7598 150.17 54.8155 150.379 54.9269C150.589 55.0371 150.749 55.1904 150.859 55.387C150.971 55.5823 151.026 55.8077 151.026 56.0631C151.026 56.3185 150.97 56.5438 150.857 56.7391C150.745 56.9344 150.582 57.0866 150.368 57.1955C150.155 57.3044 149.898 57.3589 149.596 57.3589H148.608V56.7072H149.462C149.622 56.7072 149.754 56.6803 149.857 56.6265C149.962 56.5714 150.04 56.4956 150.091 56.3992C150.144 56.3016 150.17 56.1895 150.17 56.0631C150.17 55.9354 150.144 55.8239 150.091 55.7288C150.04 55.6324 149.962 55.5579 149.857 55.5053C149.752 55.4515 149.619 55.4246 149.458 55.4246H148.898V58.6058H148.066Z" fill="#D9562A"/>
<path d="M152.836 58.6622C152.537 58.6622 152.28 58.6002 152.062 58.4763C151.846 58.3511 151.679 58.177 151.561 57.9542C151.443 57.7301 151.384 57.4703 151.384 57.1748C151.384 56.8769 151.443 56.6164 151.561 56.3936C151.679 56.1695 151.846 55.9955 152.062 55.8715C152.28 55.7463 152.537 55.6837 152.836 55.6837C153.134 55.6837 153.391 55.7463 153.607 55.8715C153.825 55.9955 153.992 56.1695 154.11 56.3936C154.228 56.6164 154.287 56.8769 154.287 57.1748C154.287 57.4703 154.228 57.7301 154.11 57.9542C153.992 58.177 153.825 58.3511 153.607 58.4763C153.391 58.6002 153.134 58.6622 152.836 58.6622ZM152.839 58.0424C152.975 58.0424 153.088 58.0049 153.179 57.9298C153.27 57.8534 153.338 57.7495 153.385 57.618C153.432 57.4866 153.456 57.337 153.456 57.1692C153.456 57.0014 153.432 56.8518 153.385 56.7204C153.338 56.5889 153.27 56.485 153.179 56.4086C153.088 56.3322 152.975 56.2941 152.839 56.2941C152.702 56.2941 152.587 56.3322 152.494 56.4086C152.402 56.485 152.332 56.5889 152.285 56.7204C152.239 56.8518 152.216 57.0014 152.216 57.1692C152.216 57.337 152.239 57.4866 152.285 57.618C152.332 57.7495 152.402 57.8534 152.494 57.9298C152.587 58.0049 152.702 58.0424 152.839 58.0424Z" fill="#D9562A"/>
<path d="M157.272 56.5438L156.523 56.5889C156.51 56.5263 156.483 56.47 156.441 56.4199C156.398 56.3686 156.343 56.3279 156.274 56.2978C156.206 56.2665 156.124 56.2509 156.03 56.2509C155.903 56.2509 155.796 56.2772 155.709 56.3297C155.622 56.3811 155.579 56.4499 155.579 56.5363C155.579 56.6052 155.607 56.6634 155.663 56.711C155.719 56.7585 155.816 56.7967 155.953 56.8255L156.487 56.9307C156.773 56.9883 156.987 57.0809 157.128 57.2086C157.269 57.3363 157.339 57.5041 157.339 57.7119C157.339 57.901 157.282 58.0669 157.168 58.2096C157.055 58.3523 156.901 58.4637 156.704 58.5439C156.508 58.6227 156.282 58.6622 156.026 58.6622C155.636 58.6622 155.325 58.5827 155.093 58.4237C154.863 58.2634 154.728 58.0456 154.688 57.7701L155.492 57.7288C155.517 57.8453 155.575 57.9342 155.669 57.9955C155.762 58.0556 155.882 58.0856 156.028 58.0856C156.171 58.0856 156.286 58.0587 156.373 58.0049C156.462 57.9498 156.506 57.8791 156.508 57.7927C156.506 57.7201 156.475 57.6606 156.414 57.6143C156.352 57.5667 156.258 57.5304 156.13 57.5054L155.619 57.4058C155.331 57.3495 155.117 57.2518 154.976 57.1129C154.836 56.9739 154.767 56.7967 154.767 56.5814C154.767 56.3961 154.818 56.2365 154.92 56.1025C155.024 55.9685 155.169 55.8653 155.356 55.7926C155.544 55.72 155.764 55.6837 156.016 55.6837C156.389 55.6837 156.682 55.7607 156.895 55.9147C157.11 56.0687 157.236 56.2784 157.272 56.5438Z" fill="#D9562A"/>
<path d="M160.307 56.5438L159.558 56.5889C159.546 56.5263 159.518 56.47 159.476 56.4199C159.434 56.3686 159.378 56.3279 159.309 56.2978C159.241 56.2665 159.16 56.2509 159.065 56.2509C158.938 56.2509 158.832 56.2772 158.745 56.3297C158.658 56.3811 158.614 56.4499 158.614 56.5363C158.614 56.6052 158.642 56.6634 158.698 56.711C158.755 56.7585 158.851 56.7967 158.988 56.8255L159.522 56.9307C159.809 56.9883 160.022 57.0809 160.163 57.2086C160.304 57.3363 160.374 57.5041 160.374 57.7119C160.374 57.901 160.317 58.0669 160.203 58.2096C160.091 58.3523 159.936 58.4637 159.739 58.5439C159.543 58.6227 159.317 58.6622 159.061 58.6622C158.671 58.6622 158.36 58.5827 158.128 58.4237C157.898 58.2634 157.763 58.0456 157.723 57.7701L158.528 57.7288C158.552 57.8453 158.611 57.9342 158.704 57.9955C158.798 58.0556 158.917 58.0856 159.063 58.0856C159.207 58.0856 159.322 58.0587 159.409 58.0049C159.497 57.9498 159.542 57.8791 159.543 57.7927C159.542 57.7201 159.51 57.6606 159.449 57.6143C159.388 57.5667 159.293 57.5304 159.165 57.5054L158.654 57.4058C158.366 57.3495 158.152 57.2518 158.011 57.1129C157.872 56.9739 157.802 56.7967 157.802 56.5814C157.802 56.3961 157.853 56.2365 157.956 56.1025C158.059 55.9685 158.204 55.8653 158.391 55.7926C158.579 55.72 158.8 55.6837 159.052 55.6837C159.424 55.6837 159.717 55.7607 159.931 55.9147C160.146 56.0687 160.271 56.2784 160.307 56.5438Z" fill="#D9562A"/>
<path d="M160.889 58.6058V55.7213H161.707V58.6058H160.889ZM161.3 55.3494C161.178 55.3494 161.074 55.31 160.987 55.2311C160.901 55.151 160.858 55.0552 160.858 54.9438C160.858 54.8336 160.901 54.7391 160.987 54.6602C161.074 54.5801 161.178 54.54 161.3 54.54C161.422 54.54 161.525 54.5801 161.611 54.6602C161.698 54.7391 161.741 54.8336 161.741 54.9438C161.741 55.0552 161.698 55.151 161.611 55.2311C161.525 55.31 161.422 55.3494 161.3 55.3494Z" fill="#D9562A"/>
<path d="M162.377 58.6058V54.7598H163.195V56.2058H163.22C163.256 56.1282 163.308 56.0493 163.376 55.9692C163.445 55.8878 163.534 55.8202 163.644 55.7664C163.756 55.7113 163.894 55.6837 164.059 55.6837C164.274 55.6837 164.472 55.7388 164.654 55.849C164.836 55.9579 164.981 56.1225 165.09 56.3429C165.199 56.562 165.253 56.8368 165.253 57.1673C165.253 57.4891 165.2 57.7608 165.094 57.9824C164.989 58.2027 164.845 58.3698 164.664 58.4838C164.483 58.5964 164.281 58.6528 164.057 58.6528C163.898 58.6528 163.763 58.6271 163.652 58.5758C163.542 58.5245 163.452 58.46 163.381 58.3824C163.311 58.3035 163.257 58.224 163.22 58.1439H163.184V58.6058H162.377ZM163.178 57.1636C163.178 57.3351 163.202 57.4847 163.251 57.6124C163.299 57.7401 163.37 57.8396 163.462 57.911C163.554 57.9811 163.666 58.0162 163.798 58.0162C163.931 58.0162 164.044 57.9805 164.136 57.9091C164.228 57.8365 164.298 57.7363 164.345 57.6086C164.394 57.4797 164.418 57.3313 164.418 57.1636C164.418 56.997 164.394 56.8506 164.347 56.7241C164.3 56.5977 164.23 56.4988 164.138 56.4274C164.045 56.356 163.932 56.3204 163.798 56.3204C163.665 56.3204 163.552 56.3548 163.46 56.4236C163.369 56.4925 163.299 56.5902 163.251 56.7166C163.202 56.8431 163.178 56.992 163.178 57.1636Z" fill="#D9562A"/>
<path d="M165.799 58.6058V55.7213H166.616V58.6058H165.799ZM166.209 55.3494C166.088 55.3494 165.983 55.31 165.896 55.2311C165.811 55.151 165.768 55.0552 165.768 54.9438C165.768 54.8336 165.811 54.7391 165.896 54.6602C165.983 54.5801 166.088 54.54 166.209 54.54C166.331 54.54 166.435 54.5801 166.52 54.6602C166.607 54.7391 166.651 54.8336 166.651 54.9438C166.651 55.0552 166.607 55.151 166.52 55.2311C166.435 55.31 166.331 55.3494 166.209 55.3494Z" fill="#D9562A"/>
<path d="M168.089 54.7598V58.6058H167.271V54.7598H168.089Z" fill="#D9562A"/>
<path d="M168.744 58.6058V55.7213H169.562V58.6058H168.744ZM169.155 55.3494C169.033 55.3494 168.929 55.31 168.842 55.2311C168.756 55.151 168.713 55.0552 168.713 54.9438C168.713 54.8336 168.756 54.7391 168.842 54.6602C168.929 54.5801 169.033 54.54 169.155 54.54C169.277 54.54 169.38 54.5801 169.466 54.6602C169.553 54.7391 169.596 54.8336 169.596 54.9438C169.596 55.0552 169.553 55.151 169.466 55.2311C169.38 55.31 169.277 55.3494 169.155 55.3494Z" fill="#D9562A"/>
<path d="M171.785 55.7213V56.3222H170.01V55.7213H171.785ZM170.413 55.0302H171.231V57.7194C171.231 57.7933 171.242 57.8509 171.265 57.8922C171.288 57.9323 171.32 57.9604 171.361 57.9767C171.403 57.993 171.452 58.0011 171.507 58.0011C171.545 58.0011 171.584 57.998 171.622 57.9917C171.661 57.9842 171.69 57.9786 171.71 57.9748L171.839 58.5702C171.798 58.5827 171.74 58.5971 171.666 58.6134C171.592 58.6309 171.502 58.6415 171.396 58.6453C171.199 58.6528 171.026 58.6271 170.877 58.5683C170.73 58.5094 170.616 58.418 170.534 58.2941C170.452 58.1702 170.411 58.0137 170.413 57.8246V55.0302Z" fill="#D9562A"/>
<path d="M172.318 58.6058V55.7213H173.136V58.6058H172.318ZM172.729 55.3494C172.607 55.3494 172.503 55.31 172.416 55.2311C172.33 55.151 172.287 55.0552 172.287 54.9438C172.287 54.8336 172.33 54.7391 172.416 54.6602C172.503 54.5801 172.607 54.54 172.729 54.54C172.85 54.54 172.954 54.5801 173.04 54.6602C173.127 54.7391 173.17 54.8336 173.17 54.9438C173.17 55.0552 173.127 55.151 173.04 55.2311C172.954 55.31 172.85 55.3494 172.729 55.3494Z" fill="#D9562A"/>
<path d="M175.134 58.6622C174.831 58.6622 174.57 58.6021 174.351 58.4819C174.134 58.3605 173.966 58.1889 173.848 57.9673C173.731 57.7445 173.672 57.4809 173.672 57.1767C173.672 56.88 173.731 56.6196 173.848 56.3955C173.966 56.1714 174.132 55.9967 174.346 55.8715C174.561 55.7463 174.813 55.6837 175.102 55.6837C175.296 55.6837 175.477 55.7144 175.645 55.7757C175.814 55.8358 175.961 55.9266 176.087 56.048C176.213 56.1695 176.312 56.3222 176.382 56.5063C176.453 56.6891 176.488 56.9031 176.488 57.1485V57.3683H173.998V56.8725H175.718C175.718 56.7573 175.692 56.6553 175.641 56.5664C175.59 56.4775 175.519 56.408 175.428 56.3579C175.339 56.3066 175.234 56.2809 175.115 56.2809C174.991 56.2809 174.881 56.3091 174.785 56.3654C174.69 56.4205 174.616 56.495 174.562 56.5889C174.509 56.6815 174.481 56.7848 174.48 56.8988V57.3701C174.48 57.5129 174.507 57.6362 174.561 57.7401C174.616 57.844 174.693 57.9241 174.793 57.9805C174.893 58.0368 175.011 58.065 175.148 58.065C175.239 58.065 175.322 58.0525 175.397 58.0274C175.473 58.0024 175.538 57.9648 175.591 57.9147C175.645 57.8647 175.686 57.8033 175.714 57.7307L176.471 57.7795C176.432 57.9573 176.353 58.1126 176.234 58.2453C176.117 58.3767 175.964 58.4794 175.778 58.5533C175.592 58.6259 175.378 58.6622 175.134 58.6622Z" fill="#D9562A"/>
<path d="M179.475 56.5438L178.726 56.5889C178.713 56.5263 178.686 56.47 178.644 56.4199C178.601 56.3686 178.546 56.3279 178.476 56.2978C178.409 56.2665 178.327 56.2509 178.233 56.2509C178.106 56.2509 177.999 56.2772 177.912 56.3297C177.825 56.3811 177.782 56.4499 177.782 56.5363C177.782 56.6052 177.81 56.6634 177.866 56.711C177.922 56.7585 178.019 56.7967 178.156 56.8255L178.69 56.9307C178.976 56.9883 179.19 57.0809 179.331 57.2086C179.471 57.3363 179.542 57.5041 179.542 57.7119C179.542 57.901 179.485 58.0669 179.371 58.2096C179.258 58.3523 179.104 58.4637 178.906 58.5439C178.711 58.6227 178.485 58.6622 178.229 58.6622C177.839 58.6622 177.528 58.5827 177.296 58.4237C177.066 58.2634 176.931 58.0456 176.891 57.7701L177.695 57.7288C177.72 57.8453 177.778 57.9342 177.872 57.9955C177.965 58.0556 178.085 58.0856 178.231 58.0856C178.374 58.0856 178.489 58.0587 178.576 58.0049C178.665 57.9498 178.709 57.8791 178.711 57.7927C178.709 57.7201 178.678 57.6606 178.617 57.6143C178.555 57.5667 178.461 57.5304 178.333 57.5054L177.822 57.4058C177.534 57.3495 177.32 57.2518 177.179 57.1129C177.039 56.9739 176.97 56.7967 176.97 56.5814C176.97 56.3961 177.021 56.2365 177.123 56.1025C177.227 55.9685 177.372 55.8653 177.559 55.7926C177.747 55.72 177.967 55.6837 178.219 55.6837C178.592 55.6837 178.885 55.7607 179.098 55.9147C179.313 56.0687 179.439 56.2784 179.475 56.5438Z" fill="#D9562A"/>
</svg>
